<svg xmlns="http://www.w3.org/2000/svg" viewBox="0 0 64 64" fill="none">
  <rect width="64" height="64" rx="18" fill="#111827" />
  <path
    d="M20 46L27.2 18H36.9L44 46H37.7L36.2 39.6H27.5L26 46H20ZM28.8 34.5H35L32 22.1L28.8 34.5Z"
    fill="#F8FAFC"
  />
  <path
    d="M47 46V18H56.8C62 18 64.8 20.6 64.8 24.8C64.8 27.7 63.3 29.7 60.6 30.8C64 31.8 65.8 34.1 65.8 37.6C65.8 42.8 62.3 46 56.4 46H47ZM53 29H56C57.8 29 58.9 28 58.9 26.3C58.9 24.6 57.8 23.7 56 23.7H53V29ZM53 40.3H56.2C58.5 40.3 59.8 39.2 59.8 37.1C59.8 34.9 58.4 33.8 56 33.8H53V40.3Z"
    fill="#F2BE3F"
    transform="translate(-10 0)"
  />
</svg>
